<svg width="48" height="48" viewBox="0 0 48 48" fill="none" xmlns="http://www.w3.org/2000/svg">
<path d="M10.1171 23.4842C13.9542 23.9561 17.4623 21.1069 17.9526 17.1204C18.4428 13.1338 13.8777 9.29169 15.536 4C7.32954 5.18897 4.50113 11.8023 4.05725 15.4114C3.56696 19.398 6.28007 23.0123 10.1171 23.4842Z" stroke="#DEDEDE" stroke-width="1.5" stroke-linejoin="round"/>
<path d="M14 40C10.1507 30.6483 9.53984 22.3883 10.2655 16" stroke="#DEDEDE" stroke-width="1.5" stroke-linecap="round" stroke-linejoin="round"/>
<path d="M19.0157 35.3363C21.3655 40.1205 27.0411 41.4398 31.6925 38.283C36.344 35.1263 37.0756 26.3797 44 23.3303C36.6109 15.1449 27.3942 18.1 23.1832 20.9579C18.5317 24.1146 16.6659 30.5521 19.0157 35.3363Z" stroke="#DEDEDE" stroke-width="1.5" stroke-linejoin="round"/>
<path d="M12 44C16.7556 35.8089 22.5287 30.86 28 28" stroke="#DEDEDE" stroke-width="1.5" stroke-linecap="round" stroke-linejoin="round"/>
</svg>
