<svg width="48" height="48" viewBox="0 0 48 48" fill="none" xmlns="http://www.w3.org/2000/svg">
<path d="M37.981 38H38M37.981 38C36.7356 39.235 34.4786 38.9274 32.8959 38.9274C30.953 38.9274 30.0174 39.3074 28.6309 40.694C27.4502 41.8747 25.8675 44 24 44C22.1326 44 20.5498 41.8748 19.3691 40.694C17.9826 39.3074 17.047 38.9274 15.1041 38.9274C13.5214 38.9274 11.2644 39.235 10.019 38C8.76362 36.7551 9.07256 34.4888 9.07256 32.8958C9.07256 30.8828 8.63231 29.9572 7.19876 28.5237C5.06627 26.3912 4.00003 25.3249 4 24C4.00002 22.675 5.06625 21.6088 7.19871 19.4763C8.4784 18.1966 9.07256 16.9286 9.07256 15.1041C9.07256 13.5213 8.76499 11.2643 10 10.0189C11.2449 8.76357 13.5112 9.07251 15.1042 9.07251C16.9285 9.07251 18.1966 8.47841 19.4763 7.19874C21.6088 5.06625 22.675 4 24 4C25.325 4 26.3912 5.06625 28.5237 7.19874C29.8031 8.47813 31.0709 9.07251 32.8958 9.07251C34.4787 9.07251 36.7357 8.76494 37.9811 10C39.2364 11.2449 38.9274 13.5112 38.9274 15.1041C38.9274 17.1172 39.3677 18.0427 40.8013 19.4763C42.9338 21.6088 44 22.675 44 24C44 25.3249 42.9337 26.3912 40.8012 28.5237C39.3677 29.9572 38.9274 30.8829 38.9274 32.8958C38.9274 34.4888 39.2364 36.7551 37.981 38Z" stroke="#DEDEDE" stroke-width="1.5"/>
<path d="M18 25.7857C18 25.7857 20.4 27.0893 21.6 29C21.6 29 25.2 21.5 30 19" stroke="#DEDEDE" stroke-width="1.5" stroke-linecap="round" stroke-linejoin="round"/>
</svg>
