<svg width="48" height="48" viewBox="0 0 48 48" fill="none" xmlns="http://www.w3.org/2000/svg">
<path d="M19.078 30.46C15.8806 30.46 13.1706 29.3494 10.948 27.128C8.72663 24.908 7.61597 22.1987 7.61597 19C7.61597 15.8014 8.72663 13.0914 10.948 10.87C13.1693 8.64871 15.8793 7.53871 19.078 7.54004C22.2766 7.54137 24.986 8.65204 27.206 10.872C29.426 13.092 30.5366 15.8014 30.538 19C30.538 20.3894 30.292 21.734 29.8 23.034C29.308 24.334 28.6613 25.446 27.86 26.37L39.678 38.184C39.8646 38.3707 39.9646 38.6007 39.978 38.874C39.99 39.1447 39.89 39.3867 39.678 39.6C39.4646 39.8134 39.2286 39.92 38.97 39.92C38.7113 39.92 38.4753 39.8134 38.262 39.6L26.446 27.784C25.446 28.636 24.296 29.2954 22.996 29.762C21.696 30.2287 20.3893 30.462 19.076 30.462M19.076 28.462C21.7293 28.462 23.97 27.5487 25.798 25.722C27.6246 23.8954 28.538 21.6547 28.538 19C28.538 16.3454 27.6253 14.1054 25.8 12.28C23.9746 10.4547 21.7346 9.54137 19.08 9.54004C16.4253 9.54004 14.1846 10.4534 12.358 12.28C10.5313 14.1067 9.6173 16.3467 9.61597 19C9.61463 21.6534 10.528 23.8934 12.356 25.72C14.184 27.5467 16.424 28.46 19.076 28.46" fill="#9B681B"/>
</svg>
