<svg width="48" height="48" viewBox="0 0 48 48" fill="none" xmlns="http://www.w3.org/2000/svg">
<path d="M34 26.4616C34 26.4616 32.1818 25.5385 30.3636 25.5385C27.6364 25.5385 24 29.2309 24 34.7691C24 40.3073 28.9792 44 34 44C39.0208 44 44 40.3073 44 34.7691C44 29.2309 40.3636 25.5385 37.6364 25.5386C35.8182 25.5385 34 26.4616 34 26.4616ZM34 26.4616C34 23.6924 35.8182 20 39.4545 20" stroke="#DEDEDE" stroke-width="1.5" stroke-linecap="round" stroke-linejoin="round"/>
<path d="M21.3099 10C23.1024 10 24.5555 8.65685 24.5555 7C24.5555 5.34315 23.1024 4 21.3099 4H10.4912C8.69872 4 7.24561 5.34315 7.24561 7C7.24561 8.65685 8.69872 10 10.4912 10M22.3385 9.84621C24.2495 13.3789 25.819 16.5667 26.7777 20C26.8559 20.2802 26.9301 20.562 27 20.8457M20.856 44H12.655C5.49442 44 4 42.6187 4 36V27.5542C4 20.7547 6.19514 15.7712 9.40935 9.82929" stroke="#DEDEDE" stroke-width="1.5" stroke-linecap="round" stroke-linejoin="round"/>
</svg>
